<svg version="1.0" xmlns="http://www.w3.org/2000/svg"
 width="50" height="50" viewBox="0 0 238.000000 174.000000"
 preserveAspectRatio="xMidYMid meet">
  <g transform="translate(0.000000,174.000000) scale(0.100000,-0.100000)"
     fill="#FFFFFF" stroke="none">
    <path d="M603 1491 c-199 -73 -310 -249 -292 -460 5 -57 15 -95 38 -142 17
    -35 31 -69 31 -76 0 -7 -24 -32 -53 -55 -29 -24 -95 -76 -146 -117 -51 -41
    -97 -85 -102 -98 -16 -42 -10 -80 17 -112 22 -26 33 -31 71 -31 36 0 49 5 71
    29 41 43 90 103 109 131 9 14 24 32 33 40 9 8 27 31 40 50 34 50 46 60 67 60
    23 0 73 -22 73 -32 0 -5 8 -8 18 -8 10 0 23 -5 29 -11 18 -18 182 -24 244 -9
    268 64 413 375 289 620 -39 77 -128 164 -209 203 -60 29 -76 32 -171 35 -83 2
    -116 -2 -157 -17z m199 -72 c29 -5 77 -22 106 -37 163 -82 231 -297 148 -462
    -22 -42 -101 -126 -137 -145 -55 -29 -116 -45 -174 -45 -55 0 -125 16 -141 33
    -4 4 -15 7 -24 7 -8 0 -43 28 -75 63 -72 76 -105 157 -105 252 0 48 7 75 34
    130 53 111 121 165 246 201 58 16 59 16 122 3z"/>
    <path d="M1197 1368 l19 -33 294 -5 293 -5 18 -30 c10 -16 18 -38 18 -48 1 -9
    5 -25 10 -35 10 -18 36 -110 36 -127 0 -6 -110 -12 -300 -15 l-300 -5 -6 -55
    c-8 -69 -36 -159 -58 -185 -9 -11 -23 -33 -31 -49 -38 -76 -167 -174 -275
    -208 -59 -19 -190 -35 -224 -27 -19 4 -39 6 -43 3 -4 -3 -8 -36 -8 -75 l0 -69
    130 0 130 0 0 54 c0 33 5 58 14 65 9 8 148 10 497 9 l484 -3 3 -62 3 -63 125
    0 125 0 -3 255 -3 254 -52 53 c-29 30 -53 58 -53 63 0 6 21 18 48 28 87 34 97
    48 68 92 -16 24 -22 25 -110 25 -63 0 -97 4 -104 13 -5 6 -20 44 -33 84 -12
    40 -33 85 -45 100 l-22 28 -332 3 -332 3 19 -33z m851 -490 c21 -21 15 -85
    -10 -108 -19 -18 -35 -20 -138 -20 -105 0 -119 2 -135 20 -15 16 -17 26 -9 48
    8 23 20 29 94 49 96 24 180 29 198 11z"/>
  </g>
</svg>
